<?xml version="1.0" standalone="no"?>
<!DOCTYPE svg PUBLIC "-//W3C//DTD SVG 20010904//EN"
 "http://www.w3.org/TR/2001/REC-SVG-20010904/DTD/svg10.dtd">
<svg version="1.0" xmlns="http://www.w3.org/2000/svg"
 width="700.000000pt" height="700.000000pt" viewBox="0 0 700.000000 700.000000"
 preserveAspectRatio="xMidYMid meet">
<metadata>
Created by potrace 1.14, written by Peter Selinger 2001-2017
</metadata>
<g transform="translate(0.000000,700.000000) scale(0.100000,-0.100000)"
fill="#000000" stroke="none">
<path d="M3278 6996 c-1 -2 -42 -6 -89 -10 -47 -4 -95 -8 -105 -10 -10 -2 -46
-7 -79 -11 -32 -4 -68 -9 -80 -11 -11 -2 -45 -8 -75 -14 -373 -68 -758 -212
-1105 -413 -103 -60 -289 -180 -305 -197 -3 -3 -41 -32 -84 -65 -100 -76 -251
-210 -352 -314 -43 -45 -82 -81 -85 -81 -4 0 -212 205 -463 456 l-456 456 2
-1204 3 -1203 1198 0 c658 0 1197 2 1197 3 0 2 -194 198 -430 434 l-431 431
23 25 c279 313 691 583 1093 717 112 38 317 90 385 99 25 3 56 8 70 10 250 43
546 40 855 -10 494 -80 1010 -351 1390 -729 120 -120 315 -357 315 -383 0 -5
7 -15 15 -22 25 -21 145 -236 205 -368 154 -339 232 -695 234 -1067 1 -384
-80 -766 -236 -1105 -19 -41 -36 -78 -37 -82 -5 -19 -120 -212 -173 -290 -188
-282 -463 -554 -738 -732 -25 -16 -56 -37 -70 -46 -47 -32 -235 -129 -320
-165 -47 -20 -94 -40 -105 -45 -56 -25 -276 -91 -348 -106 -10 -2 -26 -5 -35
-8 -9 -3 -30 -8 -47 -11 -16 -2 -41 -7 -54 -10 -13 -2 -49 -7 -80 -11 -31 -3
-59 -8 -62 -10 -25 -14 -369 -22 -521 -11 -229 17 -572 93 -723 161 -16 8 -41
17 -55 21 -52 15 -329 156 -410 209 -93 61 -109 70 -114 65 -16 -19 -491 -705
-490 -709 1 -16 239 -161 404 -247 106 -55 298 -139 405 -177 77 -27 260 -84
291 -90 10 -3 51 -12 89 -21 39 -9 79 -19 90 -21 11 -2 43 -8 70 -14 64 -12
99 -18 155 -25 25 -3 56 -7 68 -10 138 -26 680 -27 844 0 13 2 46 7 73 10 86
12 90 13 200 34 894 173 1717 731 2230 1511 232 353 415 784 491 1155 4 17 31
163 39 205 7 40 21 144 32 240 8 74 10 519 2 602 -8 84 -17 171 -24 213 -1 11
-6 43 -10 70 -3 28 -8 58 -11 67 -5 18 -11 46 -20 93 -11 63 -64 266 -78 300
-8 19 -13 35 -11 35 11 0 -104 294 -168 432 -207 441 -559 897 -917 1188 -30
25 -57 48 -60 51 -17 19 -254 190 -312 224 -156 94 -215 126 -333 185 -315
155 -692 275 -985 315 -19 3 -46 7 -60 10 -13 2 -54 7 -90 11 -36 3 -76 8 -90
11 -27 5 -536 14 -542 9z"/>
<path d="M3170 4308 l0 -943 602 -602 603 -603 232 232 233 233 -507 507 -506
506 0 806 0 806 -329 0 -328 0 0 -942z"/>
</g>
</svg>
